<?xml version="1.0" standalone="no"?><!DOCTYPE svg PUBLIC "-//W3C//DTD SVG 1.1//EN" "http://www.w3.org/Graphics/SVG/1.1/DTD/svg11.dtd"><svg t="1625653065106" class="icon" viewBox="0 0 1024 1024" version="1.1" xmlns="http://www.w3.org/2000/svg" p-id="1035" width="30" height="30" xmlns:xlink="http://www.w3.org/1999/xlink"><defs><style type="text/css"></style></defs><path d="M448 384H320v128h128V384z m256 0H576v128h128V384zM448 576H320v128h128V576z m448-384h-128V64h-128v128H384V64H256v128H128a64 64 0 0 0-64 64v576a64 64 0 0 0 64 64h768a64 64 0 0 0 64-64V256a64 64 0 0 0-64-64z m-64 576H192V320h640v448z m-128-192H576v128h128V576z" p-id="1036" fill="#71D9A3"></path></svg>