<?xml version="1.0" standalone="no"?><!DOCTYPE svg PUBLIC "-//W3C//DTD SVG 1.1//EN" "http://www.w3.org/Graphics/SVG/1.1/DTD/svg11.dtd"><svg t="1625288820392" class="icon" viewBox="0 0 1025 1024" version="1.1" xmlns="http://www.w3.org/2000/svg" p-id="11705" xmlns:xlink="http://www.w3.org/1999/xlink" width="30" height="30"><defs><style type="text/css"></style></defs><path d="M0 899.394696V115.020281C201.285491 76.680187 402.570983 38.340094 602.25897 0v1024C402.570983 982.464899 201.285491 940.929797 0 899.394696zM444.106084 511.201248c-3.195008-19.170047-3.195008-41.535101-9.585023-60.705148-9.585023-47.925117-31.950078-86.265211-79.875195-105.435258-60.705148-25.560062-127.800312 0-162.945398 63.900156-22.365055 41.535101-25.560062 86.265211-22.365055 130.99532 3.195008 38.340094 12.780031 73.485179 38.340094 102.24025 51.120125 63.900156 143.775351 63.900156 194.895476 0 31.950078-39.937598 38.340094-84.667707 41.535101-130.99532z m579.893916-172.530421V702.901716c0 41.535101-19.170047 60.705148-60.705148 60.705148H640.599064v-271.575663l57.51014 38.340094c12.780031 9.585023 22.365055 9.585023 35.145086 0l277.965679-182.115445c3.195008-3.195008 6.390016-3.195008 12.780031-9.585023z m-383.400936-121.410297H982.464899c19.170047 0 38.340094 12.780031 41.535101 31.950078 0 3.195008-3.195008 12.780031-6.390016 15.975039-99.045242 63.900156-194.895476 130.99532-293.940717 194.895476-3.195008 3.195008-12.780031 3.195008-19.170047 0-19.170047-9.585023-38.340094-22.365055-57.51014-35.145086-3.195008-3.195008-6.390016-6.390016-6.390016-9.585023V217.26053zM380.205928 512.798752c-6.390016 22.365055-9.585023 47.925117-15.975039 70.290172-9.585023 25.560062-28.75507 41.535101-57.51014 41.535101s-47.925117-15.975039-57.510141-38.340094c-22.365055-47.925117-22.365055-99.045242 0-146.970358 9.585023-25.560062 31.950078-38.340094 57.510141-38.340094s44.730109 15.975039 54.315132 41.535101c9.585023 20.767551 12.780031 46.327613 19.170047 70.290172z" fill="#888888" p-id="11706"></path></svg>