<?xml version="1.0" standalone="no"?><!DOCTYPE svg PUBLIC "-//W3C//DTD SVG 1.1//EN" "http://www.w3.org/Graphics/SVG/1.1/DTD/svg11.dtd"><svg t="1625288751654" class="icon" viewBox="0 0 1024 1024" version="1.1" xmlns="http://www.w3.org/2000/svg" p-id="8502" xmlns:xlink="http://www.w3.org/1999/xlink" width="30" height="30"><defs><style type="text/css"></style></defs><path d="M960.246 784.149c0 44.024-36.02 80.044-80.043 80.044L143.798 864.193c-44.024 0-80.044-36.02-80.044-80.044L63.754 239.851c0-44.024 36.02-80.044 80.044-80.044l736.405 0c44.023 0 80.043 36.02 80.043 80.044L960.246 784.149zM880.203 223.842 143.798 223.842c-8.505 0-16.009 7.504-16.009 16.009 0 57.031 28.516 106.559 73.541 142.078 67.036 52.529 134.073 105.558 200.609 158.587 26.515 21.512 74.541 67.537 109.561 67.537l0.5 0 0.501 0c35.019 0 83.046-46.025 109.56-67.537 66.537-53.029 133.574-106.058 200.611-158.587 32.518-25.514 73.539-81.044 73.539-123.568C896.211 245.854 899.213 223.842 880.203 223.842zM896.211 399.938c-10.506 12.007-22.012 23.013-34.518 33.018-71.541 55.03-143.58 111.061-213.117 169.093-37.521 31.517-84.047 70.038-136.075 70.038L512 672.087l-0.5 0c-52.028 0-98.554-38.521-136.075-70.038-69.538-58.032-141.577-114.063-213.116-169.093-12.507-10.005-24.014-21.011-34.52-33.018l0 384.211c0 8.505 7.504 16.009 16.009 16.009l736.405 0c8.504 0 16.008-7.504 16.008-16.009L896.211 399.938z" p-id="8503"></path></svg>