<?xml version="1.0" standalone="no"?><!DOCTYPE svg PUBLIC "-//W3C//DTD SVG 1.1//EN" "http://www.w3.org/Graphics/SVG/1.1/DTD/svg11.dtd"><svg t="1625288115867" class="icon" viewBox="0 0 1024 1024" version="1.1" xmlns="http://www.w3.org/2000/svg" p-id="839" width="30" height="30" xmlns:xlink="http://www.w3.org/1999/xlink"><defs><style type="text/css"></style></defs><path d="M774.4 471.466667c44.8-25.6 78.933333-68.266667 78.933333-121.6 0-36.266667-14.933333-72.533333-42.666666-96-27.733333-25.6-64-38.4-104.533334-36.266667-12.8 0-21.333333 10.666667-19.2 23.466667 0 12.8 10.666667 21.333333 23.466667 19.2 27.733333-2.133333 53.333333 6.4 72.533333 25.6 19.2 17.066667 27.733333 40.533333 27.733334 66.133333 0 55.466667-59.733333 98.133333-113.066667 100.266667h-21.333333c-12.8 0-21.333333 8.533333-21.333334 21.333333s8.533333 21.333333 21.333334 21.333333c104.533333 0 196.266667 81.066667 211.2 189.866667 2.133333 10.666667 10.666667 19.2 21.333333 19.2h2.133333c10.666667-2.133333 19.2-12.8 17.066667-23.466667-10.666667-98.133333-72.533333-174.933333-153.6-209.066666z" fill="#666666" p-id="840"></path><path d="M524.8 507.733333c57.6-29.866667 98.133333-89.6 98.133333-160 0-100.266667-81.066667-179.2-179.2-179.2h-12.8c-100.266667 0-179.2 81.066667-179.2 179.2 0 70.4 40.533333 130.133333 98.133334 160-142.933333 36.266667-251.733333 166.4-258.133334 326.4 0 12.8 8.533333 21.333333 21.333334 21.333334 10.666667 0 21.333333-8.533333 21.333333-21.333334 6.4-166.4 136.533333-296.533333 296.533333-296.533333h12.8c160 0 292.266667 130.133333 296.533334 296.533333 0 10.666667 10.666667 21.333333 21.333333 21.333334 12.8 0 21.333333-10.666667 21.333333-21.333334-6.4-160-113.066667-290.133333-258.133333-326.4z m-81.066667-23.466666h-12.8c-74.666667 0-136.533333-61.866667-136.533333-136.533334 0-74.666667 61.866667-136.533333 136.533333-136.533333h12.8c74.666667 0 136.533333 61.866667 136.533334 136.533333 0 74.666667-61.866667 136.533333-136.533334 136.533334z" fill="#666666" p-id="841"></path></svg>