<?xml version="1.0" standalone="no"?><!DOCTYPE svg PUBLIC "-//W3C//DTD SVG 1.1//EN" "http://www.w3.org/Graphics/SVG/1.1/DTD/svg11.dtd"><svg t="1625288889957" class="icon" viewBox="0 0 1024 1024" version="1.1" xmlns="http://www.w3.org/2000/svg" p-id="17593" xmlns:xlink="http://www.w3.org/1999/xlink" width="30" height="30"><defs><style type="text/css"></style></defs><path d="M978.112 193.664L811.136 26.688a25.6 25.6 0 0 0-36.224 0L121.344 680.256l203.136 203.2L978.048 229.824a25.6 25.6 0 0 0 0-36.224zM614.912 367.616L364.416 618.112a25.472 25.472 0 0 1-36.224 0 25.6 25.6 0 0 1 0-36.224l250.496-250.496a25.6 25.6 0 0 1 36.224 36.224z m251.776-27.136L664.32 138.112l36.224-36.224 202.368 202.368-36.224 36.224zM104 699.136c-0.64 1.024-1.472 1.856-1.92 2.944l-0.896 2.112c-0.256 0.64-0.576 1.216-0.768 1.856l-61.12 228.096a25.6 25.6 0 0 0 31.424 31.296l228.096-61.12c0.704-0.192 1.344-0.576 2.048-0.832s1.408-0.512 2.112-0.896c1.024-0.512 1.856-1.28 2.816-1.856l-201.664-201.664z" p-id="17594"></path><path d="M960 1004.8H64a25.6 25.6 0 1 1 0-51.2h896a25.6 25.6 0 1 1 0 51.2z" p-id="17595"></path></svg>