<?xml version="1.0" standalone="no"?><!DOCTYPE svg PUBLIC "-//W3C//DTD SVG 1.1//EN" "http://www.w3.org/Graphics/SVG/1.1/DTD/svg11.dtd"><svg t="1625288496162" class="icon" viewBox="0 0 1024 1024" version="1.1" xmlns="http://www.w3.org/2000/svg" p-id="5067" xmlns:xlink="http://www.w3.org/1999/xlink" width="30" height="30"><defs><style type="text/css"></style></defs><path d="M832 106.666667H192C145.066667 106.666667 106.666667 145.066667 106.666667 192v469.333333c0 46.933333 38.4 85.333333 85.333333 85.333334h213.333333l-42.666666 106.666666h-74.666667c-17.066667 0-32 14.933333-32 32s14.933333 32 32 32h448c17.066667 0 32-14.933333 32-32s-14.933333-32-32-32H661.333333l-42.666666-106.666666h213.333333c46.933333 0 85.333333-38.4 85.333333-85.333334V192c0-46.933333-38.4-85.333333-85.333333-85.333333z m-142.933333 494.933333c0 21.333333-17.066667 38.4-38.4 38.4H381.866667c-21.333333 0-38.4-17.066667-38.4-38.4V533.333333c0-27.733333 19.2-51.2 44.8-55.466666l87.466666-19.2c-27.733333-14.933333-46.933333-42.666667-46.933333-76.8V341.333333c0-46.933333 38.4-85.333333 85.333333-85.333333s85.333333 38.4 85.333334 85.333333v38.4c0 34.133333-19.2 61.866667-46.933334 76.8l91.733334 19.2c25.6 6.4 44.8 29.866667 44.8 55.466667v70.4zM778.666667 277.333333c-17.066667 0-32-14.933333-32-32s14.933333-32 32-32 32 14.933333 32 32-14.933333 32-32 32z" p-id="5068"></path></svg>