<?xml version="1.0" standalone="no"?><!DOCTYPE svg PUBLIC "-//W3C//DTD SVG 1.1//EN" "http://www.w3.org/Graphics/SVG/1.1/DTD/svg11.dtd"><svg t="1625288701962" class="icon" viewBox="0 0 1024 1024" version="1.1" xmlns="http://www.w3.org/2000/svg" p-id="7630" xmlns:xlink="http://www.w3.org/1999/xlink" width="30" height="30"><defs><style type="text/css"></style></defs><path d="M268.907473 95.626941l132.572388 170.57491 1.470491 2.417049c6.378268 8.847505 10.789741 17.669428 13.729699 27.463492 2.442632 10.789741 3.189645 22.054295 1.470491 33.835619-1.470491 11.267625-5.382591 21.560038-11.263531 31.376615l-0.974188 1.945305c-5.406127 8.821923-12.757558 16.422018-21.579481 22.800285l-2.465145 1.221828-64.194044 47.048549c-3.913123 9.31925-8.844435 29.880541 8.79941 55.395658 28.432563 40.670282 60.055794 78.150918 94.866624 112.962771l0 0 0 0c34.789341 34.811854 72.767304 66.411549 113.460098 94.592378 25.492604 17.895579 45.601594 13.009292 54.897308 9.096169l48.51904-66.660212-0.474814 0c7.103792-9.341762 15.177678-17.168008 24.994254-23.048949l-0.24764 0c10.064216-5.383614 20.357654-9.31925 32.095999-10.789741l0.973164 0c11.287067-1.470491 22.054295-0.973164 32.368198 1.967818l1.968841 0.497327c9.79304 2.940982 19.338441 7.826246 27.934213 14.205537l0 0 170.57491 132.573411 2.917446 2.216481c8.347109 7.348362 15.20019 15.924691 20.10899 25.967418l0.474814 0c5.157463 10.292414 8.347109 22.054295 8.844435 34.811854 0.723477 12.757558-1.49198 24.496927-5.880941 35.783994-4.41045 10.763135-11.513218 21.081131-20.606317 29.880541-11.264555 10.288321-24.496927 20.583804-40.670282 30.400381l-2.465145 0.973164c-15.177678 9.31925-34.042327 17.892509-55.372122 24.994254-93.623307 31.373545-193.60237 25.989931-289.690822-6.378268-101.674681-33.793664-198.98496-97.03808-278.877545-176.908152-79.892585-79.915098-143.137001-177.204911-176.953178-278.673907-31.848359-95.79374-37.751812-196.292642-6.378268-289.915949 7.125281-22.529109 16.693194-41.167608 25.989931-57.340963l0.248663 0-0.248663 0c9.794064-16.670681 20.583804-29.906124 30.876218-40.941458 8.323573-9.296737 18.615986-16.399505 29.925566-20.832468l2.420119-0.972141c10.292414-3.913123 21.579481-5.612834 32.844036-5.134951 12.757558 0.248663 24.496927 3.913123 35.286668 9.296737l1.967818 0.995677L268.907473 95.626941 268.907473 95.626941zM347.07988 308.3416 347.07988 308.3416 214.506469 138.016377l0 0c-1.221828-1.722224-2.714831-3.189645-4.161786-4.161786l-1.01819-0.226151c-1.447978-1.01819-3.913123-1.493004-6.333242-1.741667-1.990331 0-3.958148 0.248663-5.65479 0.723477l-0.972141 0.497327c-1.719154 0.74599-3.685949 2.216481-5.65479 3.664459-6.853082 7.871271-14.205537 17.666358-21.805632 29.676903-7.351432 12.010545-13.95585 26.216081-19.860327 43.61024-25.967418 78.670757-21.081131 163.966399 6.378268 246.553349 30.400381 90.930989 87.741343 178.669262 160.532183 251.439636 72.788793 72.812329 161.027463 130.379443 251.438613 160.53116 82.832544 27.437909 167.882592 32.821523 246.530836 6.378268 16.444531-5.383614 30.400381-12.010545 42.412972-19.113313l1.469468-0.74599c11.761881-7.125281 21.579481-14.951527 29.405727-22.054295 1.967818-1.719154 2.940982-3.189645 3.686972-5.383614l0 0.248663 0.226151-0.248663c0.49835-1.741667 0.995677-4.161786 0.74599-6.627954 0-2.465145-0.74599-4.886287-1.470491-6.627954l0 0c-0.723477-1.199315-1.718131-2.695389-3.189645-4.161786l-1.221828-0.723477L715.418946 677.403121l0.24764 0-0.24764-0.474814c-1.222851-0.973164-2.693342-1.945305-4.185322-2.442632l-0.973164 0c-1.945305-0.750083-3.415796-0.750083-5.858428-0.474814l-0.474814 0c-1.990331 0.474814-3.958148 0.973164-5.65479 1.945305l0 0 0 0c-1.493004 0.973164-3.189645 2.465145-4.161786 4.161786l-0.497327 0-51.957349 71.319325c-2.690272 4.387937-6.378268 8.347109-11.264555 10.767228 0 0.248663-60.779272 43.656289-135.287219-8.323573-44.60694-31.373545-85.276199-65.167209-122.55422-102.444207l0-0.226151c-37.231973-37.254485-71.545476-78.195943-102.444207-122.304534-51.934836-74.237795-8.549723-135.26573-8.323573-135.26573 2.465145-3.913123 5.157463-7.351432 9.31925-10.29139l70.076008-51.233871 2.714831-1.719154c1.471514-0.972141 2.691295-2.691295 3.664459-3.664459l0.497327-0.973164c0.995677-1.741667 1.470491-3.686972 1.719154-5.903453 0.497327-2.193968 0-4.387937 0-6.129604-0.474814-1.451048-0.723477-2.940982-2.216481-4.16588L347.07988 308.3416 347.07988 308.3416zM268.907473 95.626941 268.907473 95.626941 268.907473 95.626941 268.907473 95.626941 268.907473 95.626941zM268.657786 95.626941 268.657786 95.626941l0.249687 0L268.657786 95.626941 268.657786 95.626941z" p-id="7631"></path></svg>